<?xml version="1.0" standalone="no"?>
<!DOCTYPE svg PUBLIC "-//W3C//DTD SVG 20010904//EN"
 "http://www.w3.org/TR/2001/REC-SVG-20010904/DTD/svg10.dtd">
<svg version="1.0" xmlns="http://www.w3.org/2000/svg"
 width="404.000000pt" height="404.000000pt" viewBox="0 0 404.000000 404.000000"
 preserveAspectRatio="xMidYMid meet">
<metadata>
Created by potrace 1.14, written by Peter Selinger 2001-2017
</metadata>
<g transform="translate(0.000000,404.000000) scale(0.100000,-0.100000)"
fill="#000000" stroke="none">
<path d="M3260 2195 c0 -35 0 -35 45 -35 45 0 45 0 45 35 0 35 0 35 -45 35
-45 0 -45 0 -45 -35z"/>
<path d="M15 2043 l0 -178 130 -3 130 -3 -1 33 -1 33 -81 3 -82 3 0 44 0 45
75 0 75 0 0 35 0 35 -75 0 -75 0 0 30 0 30 79 0 c83 0 91 4 83 47 -4 23 -7 23
-131 23 l-126 0 0 -177z"/>
<path d="M1640 2185 l0 -35 55 0 55 0 0 -145 0 -145 45 0 c52 0 47 -18 48 168
l0 122 54 0 c29 0 53 3 54 8 0 4 2 19 3 35 l2 27 -158 0 -158 0 0 -35z"/>
<path d="M2009 2218 c-1 -2 -2 -83 -3 -180 l-1 -178 46 0 46 0 1 61 c0 53 14
93 25 78 2 -2 25 -34 52 -71 l49 -68 53 0 c29 0 53 2 53 5 0 3 -31 47 -69 97
l-69 92 46 55 c26 31 49 58 52 61 3 3 14 15 24 28 l19 22 -55 0 -55 0 -58 -75
c-32 -42 -60 -74 -62 -71 -3 2 -5 36 -5 75 l0 71 -44 0 c-24 0 -44 -1 -45 -2z"/>
<path d="M2387 2213 c-2 -5 -3 -84 -3 -178 l1 -170 48 -3 47 -3 -1 38 c-3 79
0 93 21 93 12 0 36 -23 67 -65 l48 -65 53 0 c28 0 52 3 52 6 0 5 -49 73 -60
84 -3 3 -16 18 -28 33 l-21 29 29 25 c57 47 49 137 -15 167 -35 17 -230 24
-238 9z m175 -65 c26 -20 27 -58 2 -82 -15 -16 -83 -23 -85 -8 0 4 -1 28 -2
55 l-2 47 36 0 c19 0 42 -6 51 -12z"/>
<path d="M2900 2185 l0 -35 55 0 55 0 0 -145 0 -145 45 0 c36 0 45 4 46 18 1
9 1 74 1 145 l0 127 54 0 c30 0 54 3 55 8 1 4 2 19 3 35 l3 27 -159 0 -158 0
0 -35z"/>
<path d="M733 2133 c-31 -6 -79 -56 -86 -89 -22 -119 36 -195 148 -191 90 4
138 52 138 143 1 105 -79 160 -200 137z m91 -69 c17 -17 23 -54 17 -111 -2
-20 -32 -43 -56 -43 -37 0 -59 40 -53 95 3 25 11 52 18 60 16 20 54 19 74 -1z"/>
<path d="M1125 2124 c-19 -10 -31 -11 -33 -5 -2 6 -24 11 -48 11 l-44 0 0
-135 0 -135 43 0 44 0 1 97 c1 103 5 113 54 113 34 0 41 -21 42 -129 l1 -76
43 -3 42 -3 0 105 c0 58 -5 116 -11 129 -21 45 -81 59 -134 31z"/>
<path d="M3550 2125 c-30 -17 -44 -19 -35 -5 4 6 -12 10 -39 10 l-46 0 0 -185
0 -185 44 0 44 0 0 38 c0 20 1 42 1 49 1 8 16 10 49 7 87 -9 142 50 142 153 0
102 -82 163 -160 118z m54 -71 c24 -23 21 -99 -4 -124 -27 -27 -68 -26 -78 1
-9 23 -7 113 3 129 10 15 62 12 79 -6z"/>
<path d="M3815 2126 c-54 -23 -74 -71 -50 -117 14 -27 47 -43 109 -53 36 -6
51 -27 30 -39 -18 -11 -95 -3 -123 12 -27 15 -28 15 -29 -24 -1 -32 1 -35 40
-46 48 -12 134 -7 167 11 32 17 51 67 39 101 -10 30 -60 59 -100 59 -13 0 -33
7 -44 15 -16 13 -17 16 -4 25 18 12 98 6 113 -9 19 -19 27 -12 27 24 0 27 -5
38 -22 44 -35 13 -121 12 -153 -3z"/>
<path d="M310 2117 c0 -8 3 -17 7 -21 4 -3 25 -57 48 -119 l41 -112 50 -3 c57
-3 49 -13 112 153 17 44 33 88 37 98 6 15 1 17 -38 17 l-46 0 -22 -72 c-31
-100 -42 -110 -58 -56 -7 24 -19 62 -28 86 -15 41 -17 42 -59 42 -30 0 -44 -4
-44 -13z"/>
<path d="M1320 2126 c0 -3 23 -63 50 -134 l51 -129 -21 -52 -20 -52 47 3 48 3
72 175 c39 96 72 178 72 183 1 4 -19 7 -43 7 l-44 0 -30 -87 -29 -88 -33 88
-33 87 -44 0 c-24 0 -43 -2 -43 -4z"/>
<path d="M3260 1995 l0 -135 44 0 45 0 0 135 0 135 -45 0 -44 0 0 -135z"/>
</g>
</svg>
